%TF.GenerationSoftware,KiCad,Pcbnew,9.0.7*%
%TF.CreationDate,2026-02-13T16:28:25+02:00*%
%TF.ProjectId,second,7365636f-6e64-42e6-9b69-6361645f7063,rev?*%
%TF.SameCoordinates,Original*%
%TF.FileFunction,Soldermask,Bot*%
%TF.FilePolarity,Negative*%
%FSLAX46Y46*%
G04 Gerber Fmt 4.6, Leading zero omitted, Abs format (unit mm)*
G04 Created by KiCad (PCBNEW 9.0.7) date 2026-02-13 16:28:25*
%MOMM*%
%LPD*%
G01*
G04 APERTURE LIST*
G04 Aperture macros list*
%AMRoundRect*
0 Rectangle with rounded corners*
0 $1 Rounding radius*
0 $2 $3 $4 $5 $6 $7 $8 $9 X,Y pos of 4 corners*
0 Add a 4 corners polygon primitive as box body*
4,1,4,$2,$3,$4,$5,$6,$7,$8,$9,$2,$3,0*
0 Add four circle primitives for the rounded corners*
1,1,$1+$1,$2,$3*
1,1,$1+$1,$4,$5*
1,1,$1+$1,$6,$7*
1,1,$1+$1,$8,$9*
0 Add four rect primitives between the rounded corners*
20,1,$1+$1,$2,$3,$4,$5,0*
20,1,$1+$1,$4,$5,$6,$7,0*
20,1,$1+$1,$6,$7,$8,$9,0*
20,1,$1+$1,$8,$9,$2,$3,0*%
G04 Aperture macros list end*
%ADD10R,1.700000X1.700000*%
%ADD11C,1.700000*%
%ADD12C,1.600000*%
%ADD13C,0.650000*%
%ADD14O,1.000000X2.100000*%
%ADD15O,1.000000X1.600000*%
%ADD16C,1.440000*%
%ADD17R,1.800000X1.800000*%
%ADD18C,1.800000*%
%ADD19RoundRect,0.250000X0.550000X0.550000X-0.550000X0.550000X-0.550000X-0.550000X0.550000X-0.550000X0*%
G04 APERTURE END LIST*
D10*
%TO.C,J1*%
X113000000Y-124460000D03*
D11*
X113000000Y-127000000D03*
%TD*%
D10*
%TO.C,J2*%
X94725000Y-95750000D03*
D11*
X94725000Y-93210000D03*
%TD*%
D12*
%TO.C,Rcc1*%
X98670000Y-143750000D03*
X108830000Y-143750000D03*
%TD*%
%TO.C,R2*%
X91000000Y-121920000D03*
X91000000Y-132080000D03*
%TD*%
%TO.C,C1*%
X107500000Y-118250000D03*
X112500000Y-118250000D03*
%TD*%
D10*
%TO.C,J3*%
X94525000Y-99750000D03*
D11*
X94525000Y-102290000D03*
%TD*%
D12*
%TO.C,R1*%
X102500000Y-128330000D03*
X102500000Y-118170000D03*
%TD*%
D13*
%TO.C,J6*%
X88610000Y-138900000D03*
X94390000Y-138900000D03*
D14*
X87180000Y-138370000D03*
D15*
X87180000Y-142550000D03*
D14*
X95820000Y-138370000D03*
D15*
X95820000Y-142550000D03*
%TD*%
D16*
%TO.C,RV1*%
X98245000Y-123210000D03*
X98245000Y-125750000D03*
X98245000Y-128290000D03*
%TD*%
D17*
%TO.C,D2*%
X91000000Y-115725000D03*
D18*
X91000000Y-118265000D03*
%TD*%
D12*
%TO.C,Rcc2*%
X98420000Y-138750000D03*
X108580000Y-138750000D03*
%TD*%
D10*
%TO.C,J5*%
X112250000Y-91820000D03*
D11*
X112250000Y-94360000D03*
X112250000Y-96900000D03*
X112250000Y-99440000D03*
X112250000Y-101980000D03*
X112250000Y-104520000D03*
X112250000Y-107060000D03*
X112250000Y-109600000D03*
X112250000Y-112140000D03*
X112250000Y-114680000D03*
%TD*%
D19*
%TO.C,U1*%
X106055000Y-112640000D03*
D12*
X106055000Y-110100000D03*
X106055000Y-107560000D03*
X106055000Y-105020000D03*
X106055000Y-102480000D03*
X106055000Y-99940000D03*
X106055000Y-97400000D03*
X106055000Y-94860000D03*
X98435000Y-94860000D03*
X98435000Y-97400000D03*
X98435000Y-99940000D03*
X98435000Y-102480000D03*
X98435000Y-105020000D03*
X98435000Y-107560000D03*
X98435000Y-110100000D03*
X98435000Y-112640000D03*
%TD*%
D10*
%TO.C,J4*%
X94525000Y-106000000D03*
D11*
X94525000Y-108540000D03*
%TD*%
M02*
